<?xml version="1.0" standalone="no"?>
<!DOCTYPE svg PUBLIC "-//W3C//DTD SVG 20010904//EN"
 "http://www.w3.org/TR/2001/REC-SVG-20010904/DTD/svg10.dtd">
<svg version="1.0" xmlns="http://www.w3.org/2000/svg"
 width="1114.000000pt" height="1245.000000pt" viewBox="0 0 1114.000000 1245.000000"
 preserveAspectRatio="xMidYMid meet">

<g transform="translate(0.000000,1245.000000) scale(0.100000,-0.100000)"
fill="#000000" stroke="none">
<path d="M3322 12363 c-190 -240 -318 -713 -300 -1103 5 -98 4 -111 -14 -129
-26 -29 -46 -26 -82 13 -28 30 -139 204 -209 327 -58 102 -80 89 -102 -61 -8
-58 -15 -133 -15 -167 0 -109 73 -390 132 -506 10 -21 69 -113 130 -204 74
-112 112 -178 115 -202 5 -34 1 -40 -47 -84 -28 -26 -58 -47 -66 -47 -8 0 -14
-4 -14 -10 0 -5 -21 -21 -47 -34 -126 -64 -238 -287 -175 -347 24 -22 28 -45
10 -52 -7 -2 9 -8 36 -12 l49 -8 -24 -18 c-13 -10 -40 -21 -59 -24 -58 -10
-71 -25 -22 -25 l42 0 -2 -39 -3 -38 -121 -62 c-93 -46 -143 -80 -209 -139
-144 -128 -175 -143 -175 -86 0 34 -37 33 -50 -1 -24 -63 -23 -73 9 -106 18
-17 38 -29 46 -26 9 4 25 -11 44 -41 16 -26 54 -71 83 -100 45 -44 68 -57 142
-82 48 -17 100 -30 115 -30 15 0 54 -11 87 -24 33 -14 87 -28 120 -31 54 -6
67 -4 129 24 38 17 84 44 104 59 91 70 107 66 116 -35 7 -68 1 -188 -12 -240
-3 -12 -16 -24 -30 -28 -65 -16 -174 -117 -216 -202 -14 -27 -37 -91 -52 -143
-15 -52 -29 -104 -32 -115 -8 -29 36 13 162 156 86 96 114 121 168 147 80 40
107 41 107 7 0 -14 5 -25 12 -25 7 0 -6 -19 -27 -42 l-40 -41 35 25 c64 47 96
59 125 48 15 -6 30 -8 35 -5 14 9 68 -53 75 -85 4 -16 11 -32 16 -35 5 -4 9
-20 9 -36 0 -17 4 -38 9 -47 5 -9 11 -40 14 -68 2 -29 7 -56 11 -62 3 -5 8
-59 10 -118 3 -100 -5 -188 -34 -359 -6 -33 -12 -71 -14 -85 -2 -14 -7 -33
-11 -42 -5 -12 -2 -18 6 -18 11 0 11 -3 -1 -11 -12 -9 -10 -10 9 -5 22 5 22 3
-9 -29 -29 -30 -35 -32 -62 -23 -16 6 -32 7 -35 4 -4 -4 5 -31 20 -60 15 -29
27 -57 27 -63 0 -5 9 -18 21 -29 11 -10 26 -28 31 -39 11 -19 10 -19 -9 -2
-25 21 -43 22 -43 1 0 -33 -91 -174 -112 -174 -5 0 -22 -10 -39 -22 -27 -20
-46 -23 -173 -29 -143 -5 -181 -13 -155 -30 11 -7 10 -9 -4 -9 -31 0 -57 20
-89 68 -19 29 -28 38 -23 22 11 -39 17 -106 8 -94 -5 7 -52 11 -130 10 l-121
-1 -23 36 c-24 39 -66 69 -96 68 -11 0 -4 -6 17 -15 19 -8 45 -30 58 -49 26
-40 26 -40 -21 -20 -32 13 -35 13 -32 -3 2 -9 4 -21 4 -25 1 -4 37 -44 81 -88
90 -91 69 -88 184 -26 27 15 55 27 61 27 7 0 18 7 25 15 7 8 30 18 51 21 22 4
39 11 39 17 0 5 -15 7 -35 4 -21 -3 -33 -2 -30 4 7 10 49 12 83 2 18 -4 21 -8
10 -15 -9 -6 -5 -7 11 -3 24 7 116 -13 106 -23 -3 -3 15 -17 40 -32 97 -57
190 -189 189 -270 -1 -19 -8 -85 -16 -146 -9 -60 -14 -122 -13 -137 3 -24 1
-27 -18 -21 l-22 6 21 -23 c20 -22 21 -31 15 -99 -4 -41 -3 -112 2 -158 8 -75
7 -93 -18 -189 -22 -86 -24 -107 -13 -114 8 -6 -1 -9 -27 -9 -30 0 -36 -3 -25
-10 8 -5 25 -10 37 -10 12 0 26 -8 31 -17 4 -10 7 -117 6 -238 l-3 -220 -40
-157 c-57 -222 -61 -228 -159 -228 -50 0 -81 18 -156 92 -27 26 -52 46 -56 43
-8 -5 -53 129 -70 210 -5 28 -19 110 -30 184 -11 74 -23 138 -28 143 -5 5 -22
-27 -40 -74 -31 -83 -102 -321 -98 -326 2 -1 24 7 50 18 43 20 66 20 66 0 0
-4 -19 -19 -42 -33 -75 -44 -90 -67 -96 -147 -2 -39 -8 -73 -13 -75 -4 -3 -5
-21 -2 -40 3 -19 2 -68 -2 -110 -7 -82 -2 -76 -86 -90 -19 -3 -63 -23 -97 -45
-34 -22 -66 -40 -72 -40 -29 0 -446 -154 -705 -261 -264 -109 -504 -242 -705
-390 -58 -42 -114 -87 -124 -98 -11 -12 -25 -21 -33 -21 -7 0 -13 -4 -13 -10
0 -5 -7 -10 -16 -10 -16 0 -77 -30 -82 -41 -1 -3 -15 -4 -30 -1 -33 4 -85 -14
-77 -28 3 -5 -1 -10 -11 -10 -52 0 -116 -74 -150 -172 -11 -35 -35 -64 -104
-127 -50 -45 -101 -102 -115 -125 -38 -65 -75 -176 -75 -226 0 -124 81 -250
195 -302 43 -20 66 -23 160 -23 135 1 206 24 274 92 32 31 53 43 73 43 16 0
46 9 68 20 48 24 134 26 246 5 229 -43 387 -47 564 -16 173 30 350 89 514 171
77 39 152 70 167 70 40 0 213 36 239 50 16 9 25 9 36 -1 21 -17 18 -32 -20
-107 -49 -97 -76 -196 -85 -309 -21 -259 29 -394 211 -569 98 -94 110 -102
203 -139 98 -39 103 -40 223 -40 111 0 125 -2 138 -19 8 -11 12 -27 9 -35 -5
-20 -7 -165 -2 -209 3 -25 -1 -36 -16 -43 -28 -15 -61 -97 -101 -244 -68 -255
-122 -352 -236 -424 -36 -23 -66 -31 -147 -41 -78 -10 -106 -10 -116 -2 -20
17 -106 42 -145 42 -18 0 -62 -7 -98 -16 -55 -14 -76 -26 -124 -71 -32 -29
-60 -48 -62 -42 -9 28 -178 -73 -178 -107 0 -6 -7 -14 -15 -18 -8 -3 -15 -13
-15 -23 0 -11 -29 -41 -69 -72 -62 -49 -116 -121 -90 -121 5 0 37 18 70 41 70
47 118 69 154 69 49 0 23 -22 -87 -74 -71 -34 -143 -77 -193 -117 -44 -35
-106 -84 -139 -109 -32 -24 -61 -50 -63 -58 -6 -15 44 -72 62 -72 7 0 51 18
97 40 47 22 110 45 139 51 30 5 69 15 87 21 30 9 36 7 49 -11 44 -63 70 -71
235 -76 l107 -3 29 62 c62 129 169 226 218 198 15 -8 1 -26 -88 -116 -102
-105 -187 -225 -203 -288 -11 -42 8 -35 91 31 40 33 83 62 94 66 12 4 53 -1
91 -10 84 -21 249 -16 344 9 110 30 202 82 248 141 41 53 41 54 147 81 218 56
312 123 387 276 55 112 63 143 72 288 12 183 49 282 178 466 24 34 56 90 73
125 51 110 62 285 24 394 -16 47 -18 107 -5 153 6 18 43 68 85 113 119 129
191 289 217 487 13 98 4 165 -38 286 -31 89 -43 111 -115 220 -58 88 -58 89
-41 115 22 35 54 60 75 61 10 0 77 -28 150 -63 73 -35 146 -68 162 -73 16 -5
34 -18 40 -29 38 -68 106 -164 147 -210 30 -32 49 -62 49 -77 0 -39 61 -131
102 -153 33 -17 40 -28 63 -100 36 -111 62 -178 103 -265 72 -155 296 -330
575 -451 110 -48 129 -60 189 -121 43 -44 79 -93 100 -136 32 -65 33 -70 31
-183 -3 -125 6 -162 53 -224 43 -56 63 -139 70 -286 8 -149 -3 -219 -40 -279
-31 -48 -37 -68 -23 -73 7 -2 -23 -12 -65 -21 -63 -14 -87 -25 -131 -61 -60
-50 -69 -64 -97 -154 -25 -80 -26 -95 -2 -86 27 12 62 18 62 11 0 -10 -33 -40
-79 -70 -56 -36 -120 -103 -128 -134 -10 -43 12 -49 72 -19 31 15 57 27 59 27
2 0 20 -13 41 -30 35 -28 43 -30 125 -30 101 0 116 -9 107 -65 l-6 -35 43 0
c34 0 48 6 70 29 29 30 46 31 76 5 24 -20 145 -37 229 -32 62 4 94 13 172 47
53 23 112 53 130 67 36 26 68 31 87 12 16 -16 85 -22 242 -22 107 0 132 3 176
23 103 45 147 127 110 200 -10 18 -26 67 -37 109 -26 103 -63 176 -105 208
-72 56 -108 120 -189 339 -33 93 -71 171 -125 260 -37 62 -35 55 -49 143 -13
85 -24 109 -80 177 -67 81 -84 214 -61 472 27 298 -88 695 -261 903 -62 75
-169 178 -239 230 -57 43 -216 124 -265 136 -16 4 -50 24 -75 46 -48 41 -56
50 -109 110 -24 27 -49 43 -85 53 -65 19 -121 74 -168 164 -32 63 -33 68 -33
185 0 67 6 193 13 281 15 172 10 302 -15 399 -16 64 -10 87 31 131 10 11 32
44 49 74 21 37 45 62 75 80 24 14 80 50 125 78 49 32 92 53 109 53 66 0 538
-106 688 -154 58 -19 130 -39 160 -46 30 -7 67 -16 81 -19 63 -15 466 -502
651 -788 31 -48 97 -147 146 -218 115 -167 204 -334 307 -570 14 -33 31 -69
37 -80 6 -11 62 -117 124 -235 61 -118 150 -281 195 -362 46 -81 101 -177 121
-215 114 -208 173 -303 498 -813 37 -58 96 -150 131 -205 114 -180 209 -297
378 -466 116 -117 182 -175 218 -193 106 -53 229 -80 543 -118 104 -13 396 -4
540 17 58 8 170 24 250 34 80 11 178 27 218 35 40 9 75 16 78 16 15 0 -1 51
-23 73 -64 60 -179 93 -608 172 -191 35 -285 54 -330 66 -70 19 -218 81 -270
114 -84 54 -309 299 -387 421 -42 66 -138 235 -176 309 -55 109 -165 401 -258
685 -73 222 -80 251 -115 473 -31 201 -50 304 -75 399 -8 31 -37 177 -64 325
-109 583 -134 678 -307 1173 -78 224 -258 613 -339 735 -22 33 -55 87 -74 120
-52 92 -142 226 -206 307 -88 111 -337 360 -420 420 -41 29 -107 78 -148 108
-41 30 -97 69 -126 85 -28 17 -74 47 -103 68 -29 21 -75 52 -104 68 -42 24
-54 37 -63 67 -5 20 -10 41 -10 45 0 8 -37 91 -88 197 -26 54 -27 60 -28 260
l0 205 -36 90 c-91 232 -166 349 -428 669 -58 70 -119 147 -136 170 -62 80
-131 214 -149 285 -38 155 -129 297 -297 461 -118 115 -166 151 -261 192 -78
33 -102 49 -157 107 -36 37 -97 88 -137 114 -110 73 -292 152 -428 187 -44 11
-84 25 -89 30 -6 6 -25 10 -43 10 -18 0 -32 4 -31 10 2 5 -20 26 -48 47 -28
21 -87 65 -130 98 -105 79 -245 166 -319 198 -70 30 -329 132 -363 142 -31 9
-59 41 -89 100 -14 28 -34 60 -46 72 -43 48 -30 188 44 464 33 124 39 162 39
246 0 93 -15 225 -40 368 -12 66 -115 486 -156 635 -14 52 -36 133 -47 180
-21 82 -23 85 -53 88 -27 3 -36 -5 -92 -75z m151 -2445 c-23 -80 -48 -122
-105 -179 -60 -60 -146 -104 -185 -95 -22 6 -17 11 54 45 96 46 173 124 198
201 14 43 37 80 50 80 2 0 -3 -24 -12 -52z m-603 -33 c0 -9 -62 -36 -68 -30
-9 9 28 35 50 35 10 0 18 -2 18 -5z m-30 -90 c-7 -8 -17 -15 -23 -15 -6 0 -2
7 9 15 25 19 30 19 14 0z m125 -2825 c25 -11 -1 -11 -35 0 -20 6 -21 8 -5 8
11 0 29 -3 40 -8z m-165 -34 c0 -2 -8 -10 -17 -17 -16 -13 -17 -12 -4 4 13 16
21 21 21 13z m2190 -434 c0 -5 -7 -17 -16 -28 -8 -10 -14 -14 -11 -9 2 6 7 18
10 28 7 17 17 23 17 9z m-1335 -1323 c17 -12 21 -18 10 -14 -11 4 -39 10 -62
12 -24 3 -40 9 -37 14 10 16 58 9 89 -12z m-232 -139 c-23 -112 -25 -140 -19
-270 5 -124 22 -247 50 -352 4 -13 -2 -7 -14 15 -11 20 -25 37 -30 37 -5 0
-17 26 -27 58 -15 47 -18 90 -17 242 1 176 2 189 28 260 15 41 32 90 38 107
20 59 17 29 -9 -97z m2747 -4623 c0 -7 -11 -29 -25 -49 -14 -20 -25 -39 -25
-43 0 -3 -28 -39 -61 -80 -81 -99 -106 -99 -77 -2 22 74 188 228 188 174z
m705 -7 c11 -18 -76 -133 -90 -118 -9 8 14 60 41 95 26 34 38 40 49 23z"/>
<path d="M2750 7135 c0 -5 5 -17 10 -25 5 -8 10 -10 10 -5 0 6 -5 17 -10 25
-5 8 -10 11 -10 5z"/>
<path d="M2831 5754 c0 -11 3 -14 6 -6 3 7 2 16 -1 19 -3 4 -6 -2 -5 -13z"/>
<path d="M2895 5277 c8 -41 -3 -67 -28 -68 l-22 0 21 -9 c26 -10 35 -23 45
-64 5 -23 7 -13 8 39 0 42 -6 82 -15 100 l-14 30 5 -28z"/>
</g>
</svg>
